<svg width="220" height="220" viewBox="0 0 220 220" fill="none" xmlns="http://www.w3.org/2000/svg">
  <rect width="220" height="220" rx="56" fill="url(#paint0_linear_2_8)"/>
  <path d="M56 72C56 63.1634 63.1634 56 72 56H148C156.837 56 164 63.1634 164 72V148C164 156.837 156.837 164 148 164H72C63.1634 164 56 156.837 56 148V72Z" fill="url(#paint1_linear_2_8)" fill-opacity="0.34"/>
  <path d="M75 72H145V91H98V111H139V129H98V149H75V72Z" fill="#FFF8F0"/>
  <path d="M102 112L145 149H116L88 126L102 112Z" fill="#2E1B14" fill-opacity="0.22"/>
  <path d="M130 72C130 78.6274 124.627 84 118 84C111.373 84 106 78.6274 106 72" stroke="#FFF8F0" stroke-width="10" stroke-linecap="round"/>
  <defs>
    <linearGradient id="paint0_linear_2_8" x1="28" y1="20" x2="190" y2="204" gradientUnits="userSpaceOnUse">
      <stop stop-color="#F6D0B3"/>
      <stop offset="0.48" stop-color="#D47A49"/>
      <stop offset="1" stop-color="#6E2D1D"/>
    </linearGradient>
    <linearGradient id="paint1_linear_2_8" x1="70" y1="60" x2="152" y2="156" gradientUnits="userSpaceOnUse">
      <stop stop-color="#FFF8F0"/>
      <stop offset="1" stop-color="#FFDCC4" stop-opacity="0"/>
    </linearGradient>
  </defs>
</svg>
